<?xml version="1.0" encoding="UTF-8"?>
<svg width="100px" height="39px" viewBox="0 0 100 39" version="1.1" xmlns="http://www.w3.org/2000/svg" xmlns:xlink="http://www.w3.org/1999/xlink">
    <!-- Generator: Sketch 52.6 (67491) - http://www.bohemiancoding.com/sketch -->
    <title>patbao-logo-f</title>
    <desc>Created with Sketch.</desc>
    <g id="patbao-logo-f" stroke="none" stroke-width="1" fill="none" fill-rule="evenodd">
        <g id="footer-Pathao_New_Logo">
            <path d="M53.048926,10.5364393 C53.4307876,10.5424293 53.5381862,10.6502496 53.4904535,11.0515807 C53.4427208,11.4529118 53.3651551,11.8482529 53.2935561,12.243594 C53.0727924,13.4955075 52.8460621,14.747421 52.6193317,15.9933444 C52.6073986,16.0532446 52.5835322,16.1371048 52.6431981,16.1730449 C52.7147971,16.2209651 52.7863962,16.1610649 52.8460621,16.1251248 C53.4725537,15.7357737 54.1527446,15.466223 54.8627685,15.2865225 C56.8973747,14.765391 58.6336516,14.7294509 60.3699284,16.0532446 C61.4558473,16.8798669 62.2315036,18.1797005 62.4880668,19.4915141 C62.7565632,20.9051581 62.5119332,22.3008319 62.2673031,23.6905158 C62.022673,25.1101498 61.778043,26.5297837 61.5334129,27.9494176 C61.3424821,29.0575707 61.1515513,30.1597338 60.9546539,31.2678869 C60.9128878,31.5014975 60.7816229,31.6452579 60.5190931,31.6392679 C59.8627685,31.6332779 59.2004773,31.6392679 58.5441527,31.6332779 C58.2458234,31.6272879 58.0847255,31.4176373 58.1384248,31.1241265 C58.627685,28.422629 59.0632458,25.7151414 59.624105,23.025624 C59.7494033,22.4146423 59.8389021,21.7916805 59.8329356,21.1627288 C59.8329356,19.4016639 58.4486874,17.98203 56.6885442,17.8682196 C55.3997613,17.7843594 54.3138425,18.2096506 53.3412888,19.0183028 C52.2315036,19.9407654 51.7004773,21.1687188 51.4618138,22.5584027 C51.0501193,24.9484193 50.6205251,27.3384359 50.1968974,29.7284526 C50.1073986,30.249584 50.0178998,30.7707155 49.9343675,31.2978369 C49.898568,31.5254576 49.7732697,31.6392679 49.552506,31.6392679 C48.8603819,31.6392679 48.1742243,31.6392679 47.4821002,31.6392679 C47.2374702,31.6392679 47.1479714,31.4895175 47.1539379,31.2618968 C47.1778043,30.6449251 47.3329356,30.0459235 47.4403341,29.4409318 C47.702864,27.9074875 47.9713604,26.3740433 48.2398568,24.840599 C48.4546539,23.6066556 48.6754177,22.3787022 48.8902148,21.1447587 C49.1646778,19.5993344 49.4331742,18.0539101 49.7016706,16.5144759 C49.9642005,15.0409318 50.2267303,13.5733777 50.4892601,12.0998336 C50.5608592,11.6805324 50.650358,11.2672213 50.7159905,10.8479201 C50.75179,10.6262895 50.8711217,10.5364393 51.0799523,10.5364393 C51.4319809,10.5364393 51.7840095,10.5364393 52.1300716,10.5364393 C52.4343675,10.5304493 52.7446301,10.5304493 53.048926,10.5364393 Z" id="Fill-1" fill="#FFFFFF"></path>
            <path d="M84.8508353,29.5966722 C81.8794749,26.5118136 82.4343675,21.1387687 86.0799523,17.5986689 C89.725537,14.0585691 95.0954654,13.693178 98.0668258,16.7840266 C101.038186,19.8688852 100.483294,25.2419301 96.8377088,28.78203 C93.1861575,32.3221298 87.8221957,32.6875208 84.8508353,29.5966722 Z M86.9391408,27.5540765 C88.8544153,29.5487521 92.428401,29.2073211 94.9164678,26.7933444 C97.4045346,24.3793677 97.8699284,20.8093178 95.9546539,18.8146423 C94.0393795,16.8199667 90.4653938,17.1613977 87.977327,19.5753744 C85.4892601,21.9893511 85.0238663,25.559401 86.9391408,27.5540765 Z" id="Combined-Shape-Copy-3" fill="#FFFFFF" fill-rule="nonzero"></path>
            <path d="M4.17661098,29.5787022 L3.96778043,29.3750416 C3.96778043,29.3750416 2.92959427,35.3590682 2.88782816,35.5088186 C2.84606205,35.6585691 2.85799523,35.9101498 2.53579952,35.9580699 L0.53699284,35.9580699 C0.26849642,35.9580699 -0.0357995227,35.8921797 0.00596658711,35.5088186 C0.602625298,31.9567388 2.01073986,23.391015 2.69689737,21.61797 C3.62768496,19.1980033 4.74343675,18.2036606 5.41169451,17.5747088 C9.11694511,14.0945092 14.4272076,13.669218 17.398568,16.7600666 C20.3699284,19.8509151 19.8150358,25.21797 16.1694511,28.7580699 C12.5178998,32.2981697 7.14797136,32.6635607 4.17661098,29.5787022 Z M6.22911695,27.5301165 C8.14439141,29.524792 11.7183771,29.1833611 14.2064439,26.7693844 C16.6945107,24.3554077 17.1599045,20.7853577 15.2446301,18.7906822 C13.3293556,16.7960067 9.75536993,17.1374376 7.2673031,19.5514143 C4.77923628,21.965391 4.31384248,25.5354409 6.22911695,27.5301165 Z" id="Combined-Shape" fill="#FFFFFF" fill-rule="nonzero"></path>
            <path d="M22.8579952,29.5966722 C19.8866348,26.5118136 20.4415274,21.1387687 24.0871122,17.5986689 C27.7326969,14.0585691 33.1026253,13.693178 36.0739857,16.7840266 C37.5596659,18.3234609 38.1622912,20.4379368 37.9415274,22.6063228 C37.6431981,25.5294509 36.7243437,30.3693844 36.5811456,31.2139767 C36.5572792,31.3697171 36.5155131,31.6332779 36.2649165,31.6332779 C35.5787589,31.6332779 34.2840095,31.6332779 34.2422434,31.6332779 C33.7291169,31.6452579 33.7768496,31.3637271 33.7708831,31.2139767 C33.7470167,30.8246256 34.0692124,29.4589018 34.0214797,29.5008319 C30.4295943,32.3520799 25.6145585,32.4658902 22.8579952,29.5966722 Z M24.9463007,27.5540765 C26.8615752,29.5487521 30.4355609,29.2073211 32.9236277,26.7933444 C35.4116945,24.3793677 35.8770883,20.8093178 33.9618138,18.8146423 C32.0465394,16.8199667 28.4725537,17.1613977 25.9844869,19.5753744 C23.49642,21.9893511 23.0310263,25.559401 24.9463007,27.5540765 Z" id="Combined-Shape-Copy-2" fill="#FFFFFF" fill-rule="nonzero"></path>
            <path d="M65.8174224,29.5966722 C62.8460621,26.5118136 63.4009547,21.1387687 67.0465394,17.5986689 C70.6921241,14.0585691 76.0620525,13.693178 79.0334129,16.7840266 C80.5190931,18.3234609 81.1217184,20.4379368 80.9009547,22.6063228 C80.6026253,25.5294509 79.6837709,30.3693844 79.5405728,31.2139767 C79.5167064,31.3697171 79.4749403,31.6332779 79.2243437,31.6332779 C78.5381862,31.6332779 77.2434368,31.6332779 77.2016706,31.6332779 C76.6885442,31.6452579 76.7362768,31.3637271 76.7303103,31.2139767 C76.7064439,30.8246256 77.0286396,29.4589018 76.9809069,29.5008319 C73.3890215,32.3520799 68.5739857,32.4658902 65.8174224,29.5966722 Z M67.9057279,27.5540765 C69.8210024,29.5487521 73.3949881,29.2073211 75.8830549,26.7933444 C78.3711217,24.3793677 78.8365155,20.8093178 76.9212411,18.8146423 C75.0059666,16.8199667 71.4319809,17.1613977 68.9439141,19.5753744 C66.4558473,21.9893511 65.9904535,25.559401 67.9057279,27.5540765 Z" id="Combined-Shape-Copy-2_1_" fill="#FFFFFF" fill-rule="nonzero"></path>
            <path d="M44.3138425,17.8382696 C44.1050119,17.8382696 43.9856802,17.9400998 43.9558473,18.1437604 C43.800716,18.9943428 43.5680191,20.2702163 43.2577566,21.977371 C42.9236277,23.8402662 42.6789976,25.2539101 42.5238663,26.2183028 C42.2911695,27.6678869 42.3389021,28.7580699 44.0990453,28.8958403 C44.3138425,28.9138103 44.624105,28.9557404 44.8866348,29.0096506 C45.375895,29.1054908 45.5668258,29.3930116 45.4653938,29.884193 C45.3579952,30.3933444 45.2505967,30.9024958 45.1431981,31.4116473 C45.1073986,31.5733777 45.0238663,31.681198 44.8448687,31.687188 C44.0871122,31.687188 43.3293556,31.693178 42.5835322,31.5074875 C40.9844869,31.1121464 39.7195704,29.7524126 39.5107399,28.1590682 C39.4391408,27.5900166 39.4868735,27.0209651 39.5704057,26.4579035 C39.7076372,25.5234609 39.8747017,24.5890183 40.0417661,23.6605657 C40.1909308,22.8159734 40.3520286,21.971381 40.5011933,21.1207987 C40.6443914,20.2941764 40.7935561,19.4675541 40.9009547,18.6289517 C40.924821,18.4133111 40.9725537,18.2036606 41.0143198,17.98802 C41.0381862,17.8682196 40.99642,17.8382696 40.8830549,17.8382696 C40.5071599,17.8442596 40.1252983,17.8382696 39.7494033,17.8382696 C39.3675418,17.8382696 39.278043,17.7184692 39.3317422,17.3291181 C39.4152745,16.7121464 39.5405728,16.0951747 39.6778043,15.490183 C39.7673031,15.0948419 39.9761337,14.9450915 40.375895,14.9391015 C40.6921241,14.9391015 41.0083532,14.9331115 41.3245823,14.9391015 C41.4856802,14.9450915 41.5632458,14.9091514 41.5930788,14.7294509 C41.8019093,13.5554077 42.022673,12.3813644 42.2434368,11.2073211 C42.2613365,11.1114809 42.2852029,11.0156406 42.3210024,10.9198003 C42.4105012,10.6622296 42.5954654,10.5304493 42.8699284,10.5304493 C43.4785203,10.5304493 44.0811456,10.5304493 44.6897375,10.5304493 C45.0954654,10.5304493 45.2684964,10.7221298 45.1968974,11.1174709 C45.0477327,11.9201331 44.9105012,12.7227953 44.7792363,13.5314476 C44.7195704,13.9148087 44.6420048,14.2981697 44.5763723,14.6815308 C44.552506,14.8073211 44.5883055,14.8971714 44.7374702,14.9151414 C44.8150358,14.9271215 44.898568,14.9331115 44.9761337,14.9331115 C45.7756563,14.9331115 46.575179,14.9450915 47.3747017,14.9271215 C48.0668258,14.9091514 48.0310263,15.1966722 47.9832936,15.6399334 C47.9176611,16.191015 47.7983294,16.7361065 47.6909308,17.281198 C47.6073986,17.7064892 47.4522673,17.8262895 47.0107399,17.8262895 C46.575179,17.8262895 46.1455847,17.8262895 45.7100239,17.8262895 C45.3818616,17.8382696 44.9224344,17.8382696 44.3138425,17.8382696 Z" id="Fill-12-Copy" fill="#FFFFFF"></path>
            <path d="M74.9045346,11.9620632 C73.5560859,10.3747088 74.1527446,9.06888519 75.3639618,7.9906822 C77.7505967,5.85823627 82.5536993,3.78569052 84.3317422,3.54009983 C85.1312649,3.43227953 85.6324582,3.71381032 86.0799523,4.1391015 C86.5274463,4.56439268 86.9152745,5.92412646 87.2374702,6.79866889 C87.5596659,7.67321131 88.5918854,9.59001664 89.3078759,10.440599 C89.725537,10.9437604 91.7422434,12.6449251 92.8997613,13.4835275 C93.1384248,13.6272879 93.2816229,13.7890183 93.150358,14.0885191 C93.0190931,14.39401 92.7625298,14.3400998 92.5775656,14.2502496 C90.1968974,13.1061564 88.597852,12.3274542 87.8699284,11.6565724 C87.1479714,10.9856905 86.1157518,9.75174709 85.7279236,9.25457571 C85.3400955,8.75740433 84.9343675,8.90116473 84.2601432,9.06289517 C83.5859189,9.22462562 81.7840095,10.087188 81.1097852,10.5603993 C80.4355609,11.0336106 80.5131265,11.524792 80.8591885,11.9261231 C81.2052506,12.3274542 83.0548926,13.4895175 83.5620525,14.2861897 C84.3556086,15.5381032 83.6336516,17.1494176 83.2756563,18.8086522 C82.9295943,20.3960067 82.4701671,22.5404326 82.4403341,22.8099834 C82.4105012,23.055574 82.2732697,23.1873544 81.9988067,23.1574043 C81.7362768,23.1274542 81.6587112,22.9777038 81.6646778,22.7381032 C81.6706444,22.318802 81.5513126,17.8742097 81.1097852,16.7900166 C80.2804296,14.771381 76.1515513,13.4236273 74.9045346,11.9620632 Z" id="Fill-14" fill="#FFFFFF"></path>
            <g id="Group-18" transform="translate(73.239857, 0.000000)" fill="#E83D3D">
                <path d="M8.87231504,0.904492512 C9.33770883,1.60532446 9.72553699,2.53976705 8.76491647,2.86921797 C4.8150358,4.24093178 3.44868735,5.27720466 2.74463007,5.56472546 C1.30071599,6.16372712 0.167064439,5.95407654 0.0417661098,4.73211314 C-0.0656324582,3.67787022 0.560859189,2.28219634 1.01431981,1.85091514 C1.87350835,1.03028286 3.03102625,0.281530782 5.52505967,0.0479201331 C7.17183771,-0.1078203 8.40692124,0.203660566 8.87231504,0.904492512 Z" id="Fill-16"></path>
            </g>
            <path d="M93.9618138,5.12146423 C93.902148,6.77470882 92.571599,8.0985025 90.8949881,8.14043261 C89.3615752,8.17637271 87.6252983,6.840599 87.8042959,4.678203 C87.9176611,3.31846922 89.0990453,1.77304493 90.8890215,1.86888519 C92.6252983,1.79700499 94.0274463,3.23460899 93.9618138,5.12146423 Z" id="Fill-19" fill="#FFFFFF"></path>
        </g>
    </g>
</svg>